<?xml version="1.0" encoding="UTF-8"?>
<svg width="99px" height="60px" viewBox="0 0 99 60" version="1.1" xmlns="http://www.w3.org/2000/svg" xmlns:xlink="http://www.w3.org/1999/xlink">
    <!-- Generator: Sketch 55.2 (78181) - https://sketchapp.com -->
    <title>Untitled</title>
    <desc>Created with Sketch.</desc>
    <g id="Page-1" stroke="none" stroke-width="1" fill="none" fill-rule="evenodd">
        <g id="rustacean-flat-gesture" transform="translate(0.333333, 0.083333)">
            <g id="Group" transform="translate(17.347667, 24.696583)" fill="#A52B00" fill-rule="nonzero">
                <path d="M35.8333333,0.0293333333 C26.2835833,0.0293333333 17.6523333,1.17758333 11.1523333,3.04841667 L11.1523333,2.62583333 C4.65233333,4.71708333 0.51225,7.62241667 0.51225,10.8346667 C0.51225,11.3410833 0.624333333,11.8398333 0.820833333,12.3289167 L0.1555,13.5223333 C0.1555,13.5223333 -0.378916667,14.2189167 0.56675,15.6889167 C1.40091667,16.9850833 5.58041667,22.05875 7.78575,24.7155833 C8.733,26.0779167 9.376,26.9166667 9.43216667,26.8355833 C9.52058333,26.707 8.8435,24.1498333 6.96225,21.2320833 C6.0845,19.665 5.01575,17.5888333 4.38658333,16.0554167 C6.14333333,17.16725 8.48566667,18.1758333 11.1523333,19.0438333 L11.1523333,19.0305833 C17.6523333,20.9016667 26.2835833,22.0496667 35.8333333,22.0496667 C46.763,22.0496667 56.569,20.5458333 63.1523333,18.1754167 L63.1523333,3.90391667 C56.569,1.53333333 46.763,0.0293333333 35.8333333,0.0293333333" id="Path"></path>
            </g>
            <g id="Group" transform="translate(81.822500, 28.328333)" fill="#A52B00" fill-rule="nonzero">
                <path d="M8.5,9.63341667 L7.38058333,7.31441667 C7.3865,7.22641667 7.39091667,7.13825 7.39091667,7.04983333 C7.39091667,4.42083333 4.65716667,1.99816667 0.0578333333,0.0580833333 L0.0578333333,14.0415833 C2.20375,13.13625 3.94491667,12.12625 5.19,11.0385 C4.8235,12.5120833 3.57025,15.4930833 2.571,17.5894167 C0.92875,20.5878333 0.333916667,23.198 0.41025,23.3271667 C0.458916667,23.4086667 1.01916667,22.5444167 1.84541667,21.1438333 C3.76808333,18.4041667 7.41141667,13.1738333 8.13958333,11.8415833 C8.9645,10.3313333 8.5,9.63341667 8.5,9.63341667" id="Path"></path>
            </g>
            <g id="Group" transform="translate(9.405833, 0.017500)" fill="#F74C00" fill-rule="nonzero">
                <path d="M87.4166667,37.93125 L80.0586667,32.511 C79.9895,32.26975 79.9203333,32.02875 79.849,31.7895 L82.2658333,28.2881667 C82.5125833,27.932 82.5623333,27.4690833 82.4020833,27.0629167 C82.2416667,26.65875 81.89075,26.369 81.4756667,26.298 L77.38875,25.6045833 C77.2305833,25.2813333 77.0645833,24.9630833 76.898,24.6475833 L78.615,20.7165833 C78.7915833,20.3160833 78.7544167,19.85075 78.5200833,19.4873333 C78.287,19.1220833 77.8908333,18.9088333 77.4686667,18.9254167 L73.3211667,19.0761667 C73.1064167,18.7965 72.8883333,18.5195 72.6656667,18.2473333 L73.6188333,14.034 C73.7154167,13.6063333 73.5936667,13.1583333 73.2955833,12.8475 C72.9993333,12.5378333 72.56875,12.4096667 72.15925,12.51 L68.1194167,13.50325 C67.85775,13.272 67.5919167,13.0438333 67.3228333,12.82025 L67.46825,8.49466667 C67.4839167,8.05683333 67.27975,7.64075 66.92925,7.39775 C66.5789167,7.15325 66.13425,7.11641667 65.7510833,7.29808333 L61.98225,9.08991667 C61.6789167,8.91575 61.37375,8.74325 61.0651667,8.57633333 L60.39925,4.314 C60.3315833,3.88225 60.05375,3.51533333 59.6646667,3.34783333 C59.27675,3.17933333 58.8321667,3.23391667 58.4915833,3.49033333 L55.1315,6.01141667 C54.8006667,5.90158333 54.4683333,5.79616667 54.1318333,5.69541667 L52.6835,1.65341667 C52.5363333,1.24133333 52.1966667,0.93875 51.7826667,0.853666667 C51.3699167,0.769333333 50.9453333,0.91225 50.6590833,1.23191667 L47.8309167,4.39616667 C47.4889167,4.35691667 47.14675,4.32108333 46.8036667,4.29125 L44.6196667,0.61175 C44.3983333,0.239083333 44.0076667,0.0123333333 43.5865833,0.0123333333 C43.1665,0.0123333333 42.775,0.239083333 42.5555833,0.61175 L40.3710833,4.29125 C40.0278333,4.32108333 39.6840833,4.35691667 39.3426667,4.39616667 L36.5140833,1.23191667 C36.2276667,0.91225 35.8015,0.769333333 35.3901667,0.853666667 C34.9763333,0.939916667 34.6364167,1.24133333 34.4896667,1.65341667 L33.04025,5.69541667 C32.7046667,5.79616667 32.3721667,5.90225 32.0405,6.01141667 L28.6815,3.49033333 C28.34,3.233 27.8955,3.17858333 27.5066667,3.34783333 C27.1191667,3.51533333 26.84025,3.88225 26.7730833,4.314 L26.1066667,8.57633333 C25.7983333,8.74325 25.4930833,8.91483333 25.1888333,9.08991667 L21.4203333,7.29808333 C21.0376667,7.11566667 20.591,7.15325 20.2424167,7.39775 C19.8923333,7.64075 19.68775,8.05683333 19.7035833,8.49466667 L19.84825,12.82025 C19.58,13.0438333 19.3146667,13.272 19.05175,13.50325 L15.0125833,12.51 C14.6021667,12.4104167 14.1720833,12.5378333 13.8750833,12.8475 C13.5763333,13.1583333 13.4551667,13.6063333 13.5513333,14.034 L14.5025833,18.2473333 C14.2818333,18.5205833 14.0634167,18.7965 13.8493333,19.0761667 L9.70175,18.9254167 C9.28316667,18.9130833 8.88366667,19.1220833 8.64983333,19.4873333 C8.4155,19.85075 8.38008333,20.3160833 8.55433333,20.7165833 L10.2725833,24.6475833 C10.1056667,24.9630833 9.93991667,25.2813333 9.78041667,25.6045833 L5.69375,26.298 C5.27858333,26.3680833 4.9285,26.6576667 4.76708333,27.0629167 C4.60666667,27.4690833 4.65875,27.932 4.90366667,28.2881667 L7.32116667,31.7895 C7.3025,31.85125 7.28533333,31.9136667 7.26675,31.9755833 L0.431666667,39.23575 C0.431666667,39.23575 -0.615,40.0566667 0.909166667,41.9859167 C2.25416667,43.6876667 9.15858333,50.4339167 12.8051667,53.9683333 C14.3454167,55.7626667 15.4004167,56.8738333 15.5106667,56.7776667 C15.6846667,56.625 14.7714167,53.3605 11.73775,49.5301667 C9.39941667,46.0935833 6.36458333,40.808 7.07616667,40.19875 C7.07616667,40.19875 7.88566667,39.1711667 9.50983333,38.4315 C9.56925,38.4790833 9.44841667,38.3844167 9.50983333,38.4315 C9.50983333,38.4315 43.786,54.2428333 75.5803333,38.699 C79.2123333,38.0475833 81.411,39.9930833 81.411,39.9930833 C82.16925,40.43275 80.20575,45.8676667 78.5911667,49.46525 C76.3950833,53.5505 76.0730833,56.73825 76.2593333,56.84875 C76.37675,56.9189167 77.1758333,55.7031667 78.3155,53.76825 C81.1275833,49.8496667 86.44375,42.3795 87.4166667,40.5650833 C88.5199167,38.5078333 87.4166667,37.93125 87.4166667,37.93125" id="Path"></path>
            </g>
            <g id="Group" transform="translate(53.904667, 40.744750)" fill="#000000">
                <path d="M11.0833333,7.21925 C11.2145833,7.10741667 11.2833333,7.041 11.2833333,7.041 L0.0625,5.99875 C9.221,-6.08333333 16.5515,3.66391667 17.3323333,4.73991667 L17.3323333,7.21925 L11.0833333,7.21925 Z" id="Path"></path>
            </g>
            <g id="Group" transform="translate(0.034833, 9.315917)" fill="#F74C00" fill-rule="nonzero">
                <path d="M21.8333333,25.3366667 C21.8333333,25.3366667 12.5753333,21.7325 11.0103333,17.8535 C11.0103333,17.8535 21.87625,9.21041667 8.87525,0.0296666667 L8.52283333,11.7310833 C8.52283333,11.7310833 4.67066667,8.01491667 4.84066667,1.5075 C4.84066667,1.5075 -7.14041667,7.27233333 6.88033333,17.47225 C6.88033333,17.47225 7.35333333,22.9470833 19.96175,29.557 L21.8333333,25.3366667 Z" id="Path"></path>
            </g>
            <g id="Group" transform="translate(58.162333, 27.960250)" fill="#000000">
                <path d="M1.33333333,1.74866667 C1.33333333,1.74866667 4.75866667,-2.00208333 8.18416667,1.74866667 C8.18416667,1.74866667 10.8755833,6.74975 8.18416667,9.25 C8.18416667,9.25 3.78,12.75075 1.33333333,9.25 C1.33333333,9.25 -1.60266667,6.4995 1.33333333,1.74866667" id="Path"></path>
            </g>
            <g id="Group" transform="translate(59.544667, 28.433000)" fill="#FFFFFF" fill-rule="nonzero">
                <path d="M3.91666667,2.66733333 C3.91666667,4.12758333 3.05591667,5.3115 1.99416667,5.3115 C0.932583333,5.3115 0.07175,4.12758333 0.07175,2.66733333 C0.07175,1.20658333 0.932583333,0.0225 1.99416667,0.0225 C3.05591667,0.0225 3.91666667,1.20658333 3.91666667,2.66733333" id="Path"></path>
            </g>
            <g id="Group" transform="translate(42.207500, 28.021917)" fill="#000000">
                <path d="M2,0.662833333 C2,0.662833333 7.87566667,-1.93875 9.47941667,3.86808333 C9.47941667,3.86808333 11.1593333,10.63625 4.65425,11.01825 C4.65425,11.01825 -3.64083333,9.42058333 2,0.662833333" id="Path"></path>
            </g>
            <g id="Group" transform="translate(43.158583, 28.445917)" fill="#FFFFFF" fill-rule="nonzero">
                <path d="M4,2.75016667 C4,4.25616667 3.11225,5.47758333 2.01716667,5.47758333 C0.922416667,5.47758333 0.0345,4.25616667 0.0345,2.75016667 C0.0345,1.24366667 0.922416667,0.0225833333 2.01716667,0.0225833333 C3.11225,0.0225833333 4,1.24366667 4,2.75016667" id="Path"></path>
            </g>
            <g id="Group" transform="translate(54.269167, 36.056583)" fill="#F74C00" fill-rule="nonzero">
                <path d="M27.9166667,0.016 C27.9166667,0.016 26.68975,4.90291667 19.059,10.03825 L16.9191667,10.53975 C16.9191667,10.53975 9.997,-2.08366667 0.190083333,12.1415 C0.190083333,12.1415 3.2465,10.362 11.4400833,12.529 C11.4400833,12.529 7.67091667,18.2978333 0.07825,18.1205833 C0.07825,18.1205833 7.35433333,26.8496667 18.4265833,14.2410833 C18.4265833,14.2410833 30.1311667,9.71483333 31.0803333,0.016 L27.9166667,0.016 Z" id="Path"></path>
            </g>
        </g>
        <rect id="Rectangle" stroke="#979797" stroke-width="2" fill-opacity="0.33" fill="#FFFFFF" x="6" y="10" width="54" height="42"></rect>
    </g>
</svg>